# xmcd
#
# Track frame offsets: 
#        150
#        14875
#        25005
#        35950
#        47125
#        60822
#        74835
#        86447
#        104832
#        115947
#        127147
#        144422
#        168997
#        177972
#        190075
#        203927
#        215610
#        225302
#        241895
#        258155
#
# Disc length: 3586 seconds
#
# Revision: 0
# Processed by: cddbd v1.5.1PL2 Copyright (c) Steve Scherf et al.
# Submitted via: ExactAudioCopy v0.95b2
#
DISCID=260e0014
DTITLE=Germaine Montéro - Germaine Montéro 1
DYEAR=1955
DGENRE=Chanson
TTITLE0=Paris canaille
TTITLE1=Les amoureux du Havre
TTITLE2=Mon p'tit voyou
TTITLE3=Le piano du pauvre
TTITLE4=La chanson triste
TTITLE5=La rue
TTITLE6=Ma vielle branche
TTITLE7=Pauvre Ruteboeuf
TTITLE8=La fortune
TTITLE9=Le temps du plastique
TTITLE10=Jazz band
TTITLE11=La complainte des assassins
TTITLE12=Les marins de Groix
TTITLE13=Nous irons tous à Valparaiso
TTITLE14=Le bar de la femme sans tête
TTITLE15=Je voulais des soleils
TTITLE16=Chanson de Marianne
TTITLE17=La complainte du bon pasteur
TTITLE18=Sir Jack l'éventreur
TTITLE19=Rue Git-le Coeur
EXTD=
EXTT0=
EXTT1=
EXTT2=
EXTT3=
EXTT4=
EXTT5=
EXTT6=
EXTT7=
EXTT8=
EXTT9=
EXTT10=
EXTT11=
EXTT12=
EXTT13=
EXTT14=
EXTT15=
EXTT16=
EXTT17=
EXTT18=
EXTT19=
PLAYORDER=
